{"title":"Lost.Time.2014.BRRip.x264-MenaceIISociety","uid":12092432,"size":789109841,"categoryP":"video","categoryS":"movies","magnet":"?xt=urn:btih:9e9e71a2b2ef6e873f21d9fb95e8f5d929afa390&amp;dn=Lost.Time.2014.BRRip.x264-MenaceIISociety&amp;tr=udp%3A%2F%2Ftracker.openbittorrent.com%3A80&amp;tr=udp%3A%2F%2Fopen.demonii.com%3A1337&amp;tr=udp%3A%2F%2Ftracker.coppersurfer.tk%3A6969&amp;tr=udp%3A%2F%2Fexodus.desync.com%3A6969","seeders":2,"leechers":1,"uploader":"xxxlavalxxx","files":4,"time":1436089793,"description":" &lt;a href=&quot;http://extraimago.com/image/7x5&quot; rel=&quot;nofollow&quot; target=&quot;_NEW&quot;&gt;http://extraimago.com/image/7x5&lt;/a&gt;\n &lt;a href=&quot;\nhttp://www.imdb.com/title/tt2564978/&quot; rel=&quot;nofollow&quot; target=&quot;_NEW&quot;&gt;\nhttp://www.imdb.com/title/tt2564978/&lt;/a&gt;\n\n\nAfter leaving a doctor visit with the worst news, Valerie Dreyfuss and her sister Melissa come to a stop on a lonely stretch of road. Their car is engulfed by a blinding light....12 hours ... See full summary Â»\n\nDirector: Christian Sesma\nWriters: Kenneth Owens, Christian Sesma\nStars: Rochelle Vallese, Luke Goss, Robert Davi \nGenres: Horror,Sci-Fi,Thriller\nCountry: USA\nLanguage: English\n\n\nSource: DL.1080p.BluRay.x264-ROOR [THANKS]\n\nGeneral\nComplete name: Lost.Time.2014.BRRip.x264-MenaceIISociety.mp4\nFormat: MPEG-4\nFormat profile: Base Media\nCodec ID: isom\nFile size: 738 MiB\nDuration: 1h 32mn\nOverall bit rate mode: Variable\nOverall bit rate: 1 112 Kbps\nEncoded date: UTC 2015-07-04 20:49:17\nTagged date: UTC 2015-07-04 20:49:17\n\nVideo\nID: 1\nFormat: AVC\nFormat/Info: Advanced Video Codec\nFormat profile: &lt;a class=&quot;__cf_email__&quot; href=&quot;/cdn-cgi/l/email-protection&quot; data-cfemail=&quot;6028090708202c544e51&quot;&gt;[email&amp;#160;protected]&lt;/a&gt;&lt;script data-cfhash='f9e31' type=&quot;text/javascript&quot;&gt;\n/* &lt;![CDATA[ */!function(){try{var t=&quot;currentScript&quot;in document?document.currentScript:function(){for(var t=document.getElementsByTagName(&quot;script&quot;),e=t.length;e--;)if(t[e].getAttribute(&quot;data-cfhash&quot;))return t[e]}();if(t&amp;&amp;t.previousSibling){var e,r,n,i,c=t.previousSibling,a=c.getAttribute(&quot;data-cfemail&quot;);if(a){for(e=&quot;&quot;,r=parseInt(a.substr(0,2),16),n=2;a.length-n;n+=2)i=parseInt(a.substr(n,2),16)^r,e+=String.fromCharCode(i);e=document.createTextNode(e),c.parentNode.replaceChild(e,c)}t.parentNode.removeChild(t);}}catch(u){}}()/* ]]&gt; */&lt;/script&gt;\nFormat settings, CABAC: Yes\nFormat settings, ReFrames: 3 frames\nCodec ID: avc1\nCodec ID/Info: Advanced Video Coding\nDuration: 1h 32mn\nBit rate mode: Variable\nBit rate: 774 Kbps\nMaximum bit rate: 40.0 Mbps\nWidth: 720 pixels\nHeight: 304 pixels\nDisplay aspect ratio: 2.35:1\nFrame rate mode: Constant\nFrame rate: 23.976 fps\nColor space: YUV\nChroma subsampling: 4:2:0\nBit depth: 8 bits\nScan type: Progressive\nBits/(Pixel*Frame): 0.147\nStream size: 513 MiB (70%)\nWriting library: x264 core 146 r2538 121396c\n\nAudio\nID: 2\nFormat: AAC\nFormat/Info: Advanced Audio Codec\nFormat profile: LC\nCodec ID: 40\nDuration: 1h 32mn\nBit rate mode: Variable\nBit rate: 334 Kbps\nMaximum bit rate: 410 Kbps\nChannel(s): 6 channels\nChannel positions: Front: L C R, Side: L R, LFE\nSampling rate: 48.0 KHz\nCompression mode: Lossy\nStream size: 222 MiB (30%)\nEncoded date: UTC 2015-07-04 19:29:35\n\n &lt;a href=&quot;\nhttp://extraimago.com/image/7xD&quot; rel=&quot;nofollow&quot; target=&quot;_NEW&quot;&gt;\nhttp://extraimago.com/image/7xD&lt;/a&gt; &lt;a href=&quot;\nhttp://extraimago.com/image/7xF&quot; rel=&quot;nofollow&quot; target=&quot;_NEW&quot;&gt;\nhttp://extraimago.com/image/7xF&lt;/a&gt; &lt;a href=&quot;\nhttp://extraimago.com/image/7xH&quot; rel=&quot;nofollow&quot; target=&quot;_NEW&quot;&gt;\nhttp://extraimago.com/image/7xH&lt;/a&gt; &lt;a href=&quot;\nhttp://extraimago.com/image/7xk&quot; rel=&quot;nofollow&quot; target=&quot;_NEW&quot;&gt;\nhttp://extraimago.com/image/7xk&lt;/a&gt;","torrent":{"xt":"urn:btih:9e9e71a2b2ef6e873f21d9fb95e8f5d929afa390","amp;dn":"Lost.Time.2014.BRRip.x264-MenaceIISociety","amp;tr":["udp%3A%2F%2Ftracker.openbittorrent.com%3A80","udp%3A%2F%2Fopen.demonii.com%3A1337","udp%3A%2F%2Ftracker.coppersurfer.tk%3A6969","udp%3A%2F%2Fexodus.desync.com%3A6969"],"infoHash":"9e9e71a2b2ef6e873f21d9fb95e8f5d929afa390","infoHashBuffer":{"type":"Buffer","data":[158,158,113,162,178,239,110,135,63,33,217,251,149,232,245,217,41,175,163,144]},"announce":[],"urlList":[]}}